<?xml version="1.0" standalone="no"?>
<!DOCTYPE svg PUBLIC "-//W3C//DTD SVG 1.1//EN" "http://www.w3.org/Graphics/SVG/1.1/DTD/svg11.dtd" >
<svg xmlns="http://www.w3.org/2000/svg">
<metadata>
This is a custom SVG webfont generated by Font Squirrel.
Copyright   : Copyright c 2011 by OmnibusType wwwomnibustypecom with Reserved Font Name Rosario
Designer    : Hector Gatti
Foundry     : OmnibusType 
Foundry URL : wwwomnibustypecom
</metadata>
<defs>
<font id="RosarioBoldItalic" horiz-adv-x="1064" >
<font-face units-per-em="2048" ascent="1638" descent="-410" />
<missing-glyph horiz-adv-x="409" />
<glyph unicode=" "  horiz-adv-x="409" />
<glyph unicode="&#x09;" horiz-adv-x="409" />
<glyph unicode="&#xa0;" horiz-adv-x="409" />
<glyph unicode="!" horiz-adv-x="507" d="M27 127q0 61 45 106.5t106 45.5q63 0 108.5 -44.5t45.5 -108t-45 -107.5t-109 -44q-61 0 -106 44.5t-45 107.5zM137 455l74 954q4 37 18.5 53.5t49.5 16.5q25 0 163 -21q70 -10 70 -65q0 -20 -2 -27l-193 -938z" />
<glyph unicode="&#x22;" horiz-adv-x="669" d="M160 1145l49 354h192l-49 -354q0 -2 -25.5 -54.5t-52 -108.5t-28.5 -62h-43q0 6 -7.5 39.5t-16.5 79.5t-13 71zM461 1145l49 354h192l-49 -354q0 -2 -25.5 -54.5t-52 -108.5t-28.5 -62h-45q0 10 -21 117z" />
<glyph unicode="#" horiz-adv-x="1183" d="M74 426v182h241l37 262h-225v183h250l59 446h182l-59 -446h193l59 446h182l-59 -446h209v-183h-234l-37 -262h218v-182h-242l-57 -426h-183l58 426h-193l-57 -426h-183l58 426h-217zM498 608h192l37 262h-192z" />
<glyph unicode="$" horiz-adv-x="835" d="M-16 59l106 168q127 -82 209 -82q68 0 116 38t48 112q0 47 -38 79t-93.5 53.5t-110.5 47t-93 77.5t-38 128q0 164 119 260t276 104l50 234h139l-90 -238q129 -16 204 -59l-102 -172q-80 70 -184 70q-57 0 -103.5 -31t-46.5 -92q0 -45 38 -75t93.5 -51.5t110.5 -47 t93 -79.5t38 -134q0 -162 -102.5 -272.5t-282.5 -123.5l-51 -229h-142l93 231q-150 14 -256 84z" />
<glyph unicode="%" horiz-adv-x="1710" d="M117 952q0 129 42 242t137 189.5t228 76.5q86 0 142 -28h696l-868 -1457h-138l805 1346h-383q41 -76 41 -186q0 -205 -106.5 -358.5t-300.5 -153.5q-145 0 -220 89.5t-75 239.5zM330 948q0 -164 104 -164q66 0 108 70t54 142.5t12 140.5q0 162 -106 161q-66 0 -107 -68.5 t-53 -141t-12 -140.5zM920 322q0 205 105 356t300 151q147 0 221 -89t74 -238q0 -205 -105.5 -357.5t-300.5 -152.5q-147 0 -220.5 90t-73.5 240zM1130 317q0 -164 105 -163q66 0 107.5 69.5t54 142t12.5 140.5q0 162 -104 162q-66 0 -108 -69t-54.5 -141.5t-12.5 -140.5z " />
<glyph unicode="&#x26;" horiz-adv-x="1497" d="M141 373q0 268 230 446q-43 80 -43 162q0 145 88 248.5t213 147.5t266 44q113 0 221.5 -41t177.5 -118l-123 -125q-51 51 -125.5 87t-140.5 36q-139 0 -237.5 -82t-98.5 -217q0 -25 2 -31q113 39 215 39q63 0 114.5 -12.5t93.5 -51.5t42 -102q0 -88 -97 -138.5 t-196 -50.5q-143 0 -239 64q-92 -125 -92 -275q0 -115 63.5 -174t177.5 -59q217 0 330 156q31 49 31 73q0 51 -58 52q-25 0 -44 -16.5t-23 -41.5h-160q0 104 67.5 153.5t176.5 49.5l258 -25q31 0 54.5 19.5t25.5 48.5h159q0 -225 -247 -225q-92 -223 -249 -331t-396 -108 q-199 0 -318 101.5t-119 296.5zM639 797q43 -37 96 -37q29 0 67 10t38 31q0 33 -64 33q-71 0 -137 -37z" />
<glyph unicode="'" horiz-adv-x="368" d="M160 1145l49 354h192l-49 -354q0 -2 -25.5 -54.5t-52 -108.5t-28.5 -62h-43q0 6 -7.5 39.5t-16.5 79.5t-13 71z" />
<glyph unicode="(" horiz-adv-x="630" d="M53 455q0 555 502 1067l182 -33q-229 -246 -341.5 -505t-112.5 -576q0 -340 221 -674l-191 -33q-260 357 -260 754z" />
<glyph unicode=")" horiz-adv-x="630" d="M-111 -266q227 240 341 501t114 578q0 340 -219 676l188 33q260 -356 260 -754q0 -293 -136 -565.5t-365 -501.5z" />
<glyph unicode="*" horiz-adv-x="952" d="M137 1130l90 220l267 -152l-15 320h228l-97 -320l297 160l54 -221l-330 -56l203 -217l-201 -141l-107 289l-184 -283l-158 131l260 227z" />
<glyph unicode="+" horiz-adv-x="1159" d="M53 418v180h420v420h180v-418h420v-180h-420v-420h-180v418h-420z" />
<glyph unicode="," horiz-adv-x="477" d="M-31 -190q115 102 115 157q0 12 -37 56.5t-37 97.5q0 70 48 117t114 47q72 0 115 -45t43 -113q0 -113 -89 -220t-204 -181z" />
<glyph unicode="-" horiz-adv-x="679" d="M86 430l27 195h452l-26 -195h-453z" />
<glyph unicode="." horiz-adv-x="471" d="M10 133q0 68 46 114t111.5 46t113 -47t47.5 -112.5t-46 -112t-114 -46.5q-66 0 -112 46t-46 112z" />
<glyph unicode="/" horiz-adv-x="677" d="M-16 0l551 1499h192l-553 -1499h-190z" />
<glyph unicode="0" horiz-adv-x="1165" d="M53 403q0 301 159 471t425 170q215 0 328.5 -111.5t113.5 -316.5q0 -274 -144 -457.5t-439 -183.5q-213 0 -328 112.5t-115 315.5zM305 387q0 -246 213 -246q88 0 151.5 45t95.5 120t46 153t14 162q0 258 -211 258q-88 0 -152.5 -48.5t-96 -126t-46 -156.5t-14.5 -161z " />
<glyph unicode="1" horiz-adv-x="798" d="M18 0l27 203h211l74 571l-217 -59l-25 131l358 174h152l-106 -817h202l-26 -203h-650z" />
<glyph unicode="2" horiz-adv-x="962" d="M-4 0v111q94 92 273.5 277t213.5 220q82 82 82 156q0 47 -28.5 72.5t-73.5 25.5q-113 0 -260 -135l-101 131q223 190 453 191q123 0 209 -61.5t86 -178.5q0 -152 -139 -285q-53 -51 -111.5 -102t-140.5 -121t-115 -98h510l-82 -203h-776z" />
<glyph unicode="3" horiz-adv-x="978" d="M-98 -262q104 4 207.5 24.5t217 66.5t184.5 138t71 217q0 119 -121 119q-63 0 -139 -29l-52 148q123 55 237 164.5t114 220.5q0 70 -64 70q-86 0 -205 -101l-94 115q68 74 179.5 115t209.5 41q104 0 177 -44.5t73 -140.5q0 -117 -114.5 -227.5t-254.5 -177.5q45 4 62 4 q123 0 195.5 -58.5t72.5 -173.5q0 -158 -89 -283.5t-231.5 -199.5t-300 -113t-311.5 -39h-16z" />
<glyph unicode="4" horiz-adv-x="1073" d="M-51 -2v119l676 903h254l-107 -817h203l-35 -205h-195l-49 -375h-243l49 375h-553zM240 203h288l62 471z" />
<glyph unicode="5" horiz-adv-x="780" d="M-55 -297q434 139 434 455q0 123 -107.5 232.5t-238.5 168.5l198 461h539l-68 -248h-364l-43 -102q150 -86 246 -214t96 -288q0 -127 -59.5 -234.5t-155.5 -179t-207.5 -118t-226.5 -60.5z" />
<glyph unicode="6" horiz-adv-x="1089" d="M51 412q0 162 59.5 311t164 270t226.5 215.5t265 167.5q176 90 289 119l37 -133q-199 -72 -386.5 -228.5t-299.5 -347.5q121 76 235 76q164 0 263.5 -97t99.5 -261q0 -211 -148.5 -370t-378.5 -159q-199 0 -312.5 120t-113.5 317zM313 406q0 -109 44 -185t139 -76 q113 0 178 103.5t65 228.5q0 88 -43 148.5t-129 60.5q-121 0 -229 -108q-25 -98 -25 -172z" />
<glyph unicode="7" horiz-adv-x="894" d="M51 791l62 227h792v-129l-555 -1276h-264l526 1178h-561z" />
<glyph unicode="8" horiz-adv-x="1007" d="M39 299q0 39 5 74t18.5 67.5t22.5 57t34.5 54.5t38 45t47.5 46t46 40t53 42t52 41l-8 8l-6 6q-82 88 -118 151.5t-36 158.5q0 184 128 296.5t298 112.5q145 0 242.5 -74.5t97.5 -210.5q0 -53 -12 -101t-23.5 -77.5t-48 -71.5t-49 -55.5t-67 -59.5t-64.5 -54l12 -15 l13 -12q63 -70 93 -108.5t58.5 -105.5t28.5 -140q0 -193 -133 -316t-348 -123q-158 0 -266.5 85t-108.5 239zM258 315q0 -78 44 -126t120 -48q88 0 149.5 70t61.5 160q0 20 -4 41.5t-17.5 44t-20.5 37t-28.5 39t-28 31.5t-31.5 35l-26 28l-78 -62q-141 -111 -141 -250z M455 1135q0 -18 3 -35t11 -34t14 -28.5t19.5 -29t19.5 -24.5t22.5 -25.5t22.5 -24.5q55 45 83 70.5t56.5 78t28.5 111.5q0 143 -119 143q-70 0 -115.5 -62t-45.5 -140z" />
<glyph unicode="9" horiz-adv-x="1062" d="M-47 -305q203 68 392.5 212t297.5 329q-121 -76 -235 -76q-164 0 -263.5 97t-99.5 259q0 223 161 377t367 154q197 0 310.5 -121t113.5 -318q0 -188 -88 -363t-233.5 -306.5t-321.5 -227.5t-366 -149zM311 545q0 -92 43 -150.5t129 -58.5q117 0 230 108q23 86 22 172 q0 109 -44 185t-138 76q-113 0 -177.5 -105.5t-64.5 -226.5z" />
<glyph unicode=":" horiz-adv-x="526" d="M31 133q0 68 46 114t111.5 46t112.5 -47t47 -112.5t-46 -112t-112 -46.5q-68 0 -113.5 46t-45.5 112zM123 725q0 66 46 112t112 46q68 0 113.5 -46t45.5 -112q0 -68 -46 -114t-111.5 -46t-112.5 47t-47 113z" />
<glyph unicode=";" horiz-adv-x="528" d="M-8 -190q115 102 114 157q0 12 -36.5 56.5t-36.5 97.5q0 70 48 117t114 47q72 0 114.5 -45t42.5 -113q0 -113 -89 -220t-204 -181zM121 725q0 66 46 112t114 46q66 0 111.5 -46t45.5 -112q0 -68 -46 -114t-111.5 -46t-112.5 47t-47 113z" />
<glyph unicode="&#x3c;" horiz-adv-x="1212" d="M45 457v106l1020 479v-184l-754 -348l754 -354v-181z" />
<glyph unicode="=" horiz-adv-x="1327" d="M137 223v180h1020v-180h-1020zM137 618v181h1020v-181h-1020z" />
<glyph unicode="&#x3e;" horiz-adv-x="1212" d="M115 -25v181l753 354l-753 348v184l1020 -479v-106z" />
<glyph unicode="?" horiz-adv-x="827" d="M72 127q0 61 45 106.5t106.5 45.5t107.5 -45.5t46 -106.5t-46 -106.5t-107.5 -45.5t-106.5 45.5t-45 106.5zM102 717q0 90 51.5 155.5t124 105.5t145.5 74.5t124 82t51 110.5q0 39 -36 63.5t-75 24.5q-84 0 -186 -47l-51 172q147 41 258 41q135 0 238.5 -69.5 t103.5 -198.5q0 -100 -53.5 -178t-128 -123t-150.5 -80t-129 -72t-53 -80q0 -59 76.5 -81.5t152.5 -22.5h31l-53 -191q-106 6 -198.5 34t-167.5 101t-75 179z" />
<glyph unicode="@" horiz-adv-x="1644" d="M59 393q0 162 59.5 317.5t164 281.5t265.5 204t349 78q289 0 485.5 -172t196.5 -465q0 -205 -111.5 -369t-289.5 -164q-158 0 -222 115q-41 -55 -107.5 -86t-125.5 -31q-129 0 -195.5 92.5t-66.5 227.5q0 168 116.5 323.5t303.5 155.5q111 0 176 -76l35 62h96 q-37 -238 -39 -252q-39 -223 -39 -303q0 -113 76 -113q115 0 188.5 128t73.5 290q0 244 -157.5 385t-393.5 141q-158 0 -294 -67.5t-224 -178t-138.5 -246.5t-50.5 -278q0 -240 149.5 -399.5t379.5 -159.5q86 0 172 25l31 -109q-92 -27 -203 -26q-287 0 -473.5 191 t-186.5 478zM647 422q0 -190 111 -191q55 0 96 41t68.5 124t41 148.5t29.5 170.5q-63 59 -125 59q-72 0 -125 -67.5t-74.5 -144.5t-21.5 -140z" />
<glyph unicode="A" horiz-adv-x="1239" d="M-78 0l705 1499h221l303 -1499h-287l-84 430h-401l-203 -430h-254zM473 631h264q-10 53 -69 512q-16 -43 -83 -227.5t-112 -284.5z" />
<glyph unicode="B" horiz-adv-x="1202" d="M53 0l185 1374l-13 125h508q80 0 148.5 -12t134 -43t102.5 -91.5t37 -146.5q0 -145 -97 -256.5t-243 -132.5q135 -25 221 -119t86 -229q0 -225 -169 -347t-402 -122h-498zM350 203h209q127 0 206 81t79 205q0 109 -80 165.5t-195 56.5h-151zM444 913h199q96 0 159.5 68 t63.5 164q0 151 -176 151h-2h-192z" />
<glyph unicode="C" horiz-adv-x="1245" d="M76 600q0 240 91 448.5t276.5 344t428.5 135.5q121 0 248 -37t195 -109l-166 -188q-45 63 -128 99t-165 36q-123 0 -220 -63.5t-153.5 -166t-85 -216t-28.5 -228t28.5 -219t108.5 -186.5t199 -82q180 0 352 154l96 -195q-129 -78 -240.5 -115t-248.5 -37 q-285 0 -436.5 168t-151.5 457z" />
<glyph unicode="D" horiz-adv-x="1398" d="M53 0l185 1374l-15 125h539q281 0 437.5 -161.5t156.5 -446.5q0 -238 -93.5 -438.5t-277.5 -326.5t-426 -126h-506zM350 203h225q125 0 222.5 60.5t154 159.5t85 212t28.5 231q0 188 -84 309t-264 121h-221z" />
<glyph unicode="E" d="M53 0l185 1374l-15 125h897l-26 -203h-600l-58 -424h459l-27 -202h-458l-62 -467h598l-26 -203h-867z" />
<glyph unicode="F" horiz-adv-x="966" d="M53 0l185 1374l-13 125h834l-27 -203h-536l-58 -424h416l-27 -202h-415l-90 -670h-269z" />
<glyph unicode="G" horiz-adv-x="1415" d="M76 582q0 254 93 464.5t285.5 344t450.5 133.5q133 0 269.5 -40t207.5 -122l-163 -168q-92 80 -160 108.5t-180 28.5q-131 0 -234.5 -64.5t-162 -169t-88 -223t-29.5 -243.5q0 -115 26.5 -212t102 -171t194.5 -74q137 0 233.5 94t114.5 224l17 126h-295l22 181h568 q-80 -545 -101 -801h-139l-43 156q-106 -92 -210.5 -134.5t-238.5 -42.5q-266 0 -403 167.5t-137 437.5z" />
<glyph unicode="H" horiz-adv-x="1406" d="M53 0l185 1374l-13 125h295l-84 -627h598l84 627h271l-201 -1499h-270l90 670h-598l-88 -670h-269z" />
<glyph unicode="I" horiz-adv-x="538" d="M53 0l185 1374l-13 125h295l-198 -1499h-269z" />
<glyph unicode="J" horiz-adv-x="538" d="M-440 -381l127 170q66 -74 151 -74q180 0 228 381l172 1278l-13 125h295l-176 -1333q-12 -92 -19.5 -138t-25.5 -127t-38.5 -123t-57.5 -97.5t-83 -83t-114.5 -48t-155.5 -20.5q-159 0 -290 90z" />
<glyph unicode="K" horiz-adv-x="1142" d="M53 0l185 1374l-13 125h295l-96 -715l522 715h289l-528 -706l378 -793h-315l-346 772l-102 -772h-269z" />
<glyph unicode="L" horiz-adv-x="978" d="M53 0l185 1374l-11 125h295l-172 -1296h557l-26 -203h-828z" />
<glyph unicode="M" horiz-adv-x="1726" d="M53 0l183 1374l-11 125h393l189 -862q8 -37 12 -76t6 -94t4 -78q49 170 86 240l410 870h383l-201 -1499h-268l135 1016q4 29 15.5 80t13.5 67q-8 -16 -29.5 -67.5t-36.5 -79.5l-483 -1018h-180l-223 1018q-20 57 -29 147q-6 -125 -8 -147l-138 -1016h-223z" />
<glyph unicode="N" horiz-adv-x="1423" d="M53 0l183 1374l-11 125h326l442 -899l60 -135q4 27 4 80t4 78l117 876h227l-203 -1509h-219l-502 1028l-63 137q-6 -135 -6 -137l-138 -1018h-221z" />
<glyph unicode="O" horiz-adv-x="1497" d="M78 604q0 240 89 445.5t271.5 339t425.5 133.5q285 0 438.5 -168t153.5 -455q0 -240 -91 -446.5t-276.5 -341t-431.5 -134.5q-279 0 -429 172t-150 455zM365 610q0 -186 75.5 -312t249.5 -126q127 0 224.5 70.5t149.5 182.5t77.5 229.5t25.5 234.5q0 121 -26.5 213 t-102 158.5t-196.5 66.5q-125 0 -222.5 -70.5t-150.5 -182t-78.5 -229.5t-25.5 -235z" />
<glyph unicode="P" horiz-adv-x="1124" d="M53 0l185 1374l-13 125h453q201 0 331 -96t130 -295q0 -246 -162 -376t-418 -130h-158l-79 -602h-269zM430 801h164q121 0 190.5 89t69.5 212q0 94 -49 144t-143 50h-166z" />
<glyph unicode="Q" horiz-adv-x="1495" d="M76 594q0 240 90 448.5t275.5 345t428.5 136.5q281 0 432.5 -176.5t151.5 -460.5q0 -260 -117.5 -488.5t-337.5 -343.5q152 -86 259.5 -139t271.5 -109.5t285 -56.5q98 0 368 72l49 -150q-111 -39 -175 -59.5t-160.5 -37.5t-188.5 -17q-109 0 -245 41t-231 86 t-246.5 122.5t-213.5 106.5q-35 18 -74 29.5t-90 22.5t-76 18q-456 108 -456 610zM365 608q0 -86 16 -158.5t51 -137t101.5 -101.5t156.5 -37q125 0 221.5 69.5t150.5 179t80.5 228.5t26.5 234q0 117 -26.5 211t-103 162.5t-195.5 68.5q-123 0 -220.5 -71.5t-150.5 -184.5 t-80.5 -231.5t-27.5 -231.5z" />
<glyph unicode="R" horiz-adv-x="1196" d="M53 0l185 1374l-13 125h490q180 0 304 -94t124 -275q0 -152 -100.5 -267t-256.5 -152l340 -711h-303l-305 668h-106l-90 -668h-269zM438 868h123q297 0 297 256q0 82 -56.5 126t-139.5 44h-168z" />
<glyph unicode="S" horiz-adv-x="1099" d="M-14 100l129 222q135 -150 321 -150q111 0 192 68.5t81 177.5q0 61 -40 113.5t-99.5 85t-130 75.5t-130 85t-99.5 114t-40 162q0 236 162 353.5t409 117.5q82 0 191.5 -36t169.5 -87l-121 -189q-49 49 -135 82t-158 33q-92 0 -157.5 -54t-65.5 -147q0 -59 40 -109 t99.5 -82t129 -75t129 -86t99 -116.5t39.5 -165.5q0 -231 -165.5 -374t-401.5 -143q-262 0 -448 125z" />
<glyph unicode="T" horiz-adv-x="1112" d="M113 1296l26 203h1075l-28 -203h-400l-174 -1296h-278l172 1296h-393z" />
<glyph unicode="U" horiz-adv-x="1366" d="M106 442q0 70 9 127l108 807l-14 123h305l-133 -1001q-4 -37 -4 -56q0 -127 73.5 -198.5t200.5 -71.5q145 0 241.5 96.5t115.5 233.5l135 997h219l-125 -930q-39 -287 -189.5 -439.5t-451.5 -152.5q-233 0 -361.5 117t-128.5 348z" />
<glyph unicode="V" horiz-adv-x="1200" d="M123 1499h285l161 -856q4 -23 9.5 -75t7.5 -70l6 -88l33 106q37 117 63 174l371 809h254l-692 -1501h-209z" />
<glyph unicode="W" horiz-adv-x="1863" d="M135 1499h281l108 -866q4 -23 7.5 -79t5.5 -83l6 -98l30 127q37 143 64 209l317 790h244l111 -870q6 -41 10 -160l4 -96l35 127q51 166 69 209l312 790h229l-582 -1503h-274l-106 852l-7 129q-2 31 -2 100q-25 -86 -39 -127q-55 -176 -69 -211l-293 -743h-270z" />
<glyph unicode="X" horiz-adv-x="1169" d="M-100 0l561 772l-316 727h310l200 -455l312 455h297l-504 -698l342 -801h-309l-232 532l-362 -532h-299z" />
<glyph unicode="Y" horiz-adv-x="1114" d="M119 1499h299l196 -532l351 532h266l-539 -829l-90 -670h-266l88 676z" />
<glyph unicode="Z" horiz-adv-x="1120" d="M-29 0v168l807 1128h-606l27 203h956v-149l-813 -1147h676l-29 -203h-1018z" />
<glyph unicode="[" horiz-adv-x="600" d="M10 -270l238 1769h424l-17 -121h-192l-205 -1528h193l-17 -120h-424z" />
<glyph unicode="\" d="M176 1499h191l553 -1499h-193z" />
<glyph unicode="]" horiz-adv-x="600" d="M-74 -270l17 120h192l203 1528h-191l15 121h424l-236 -1769h-424z" />
<glyph unicode="^" horiz-adv-x="1265" d="M98 0l482 1020h106l481 -1020h-186l-348 754l-354 -754h-181z" />
<glyph unicode="_" horiz-adv-x="1441" d="M72 -293l26 197h1041l-27 -197h-1040z" />
<glyph unicode="`" horiz-adv-x="507" d="M8 1546h297l223 -338h-211z" />
<glyph unicode="a" horiz-adv-x="1118" d="M33 403q0 160 61.5 303.5t190.5 239.5t299 96q57 0 126.5 -25.5t118.5 -76.5l48 84h129l-111 -758q-4 -29 -4 -43q0 -73 50 -73h1q35 0 98 24l35 -129q-96 -63 -217 -63q-61 0 -108.5 39.5t-59.5 99.5h-8q-109 -145 -299 -146q-174 0 -262 124t-88 304zM281 403 q0 -258 149 -258q72 0 128 57.5t91 162t56.5 202t37.5 226.5q-81 81 -174 81h-2q-78 0 -137 -52t-90 -130t-45 -153t-14 -136z" />
<glyph unicode="b" horiz-adv-x="1060" d="M35 82l184 1378l-10 113h260l-84 -631q111 102 262 102q176 0 263 -115.5t87 -312.5q0 -160 -75.5 -303t-227 -239.5t-348.5 -96.5q-198 1 -311 105zM287 201q0 -55 86 -56q168 0 272.5 167t104.5 354q0 206 -145 206h-1q-57 0 -127.5 -45t-120.5 -102l-67 -504 q-2 -6 -2 -20z" />
<glyph unicode="c" horiz-adv-x="884" d="M33 403q0 266 155.5 453.5t407.5 187.5q74 0 158 -27.5t139 -70.5l-141 -162q-86 90 -185 90q-74 0 -130 -47t-85.5 -118.5t-45 -143t-15.5 -137.5q0 -119 46 -195.5t152 -76.5q109 0 226 92l76 -176q-182 -96 -349 -97q-184 0 -296.5 122t-112.5 306z" />
<glyph unicode="d" horiz-adv-x="1148" d="M33 403q0 252 143 445.5t387 193.5q139 0 207 -65l64 485l-11 113h260l-188 -1307q-4 -29 -4 -43q0 -73 50 -73h1q35 0 98 24l35 -131q-96 -63 -217 -63q-61 0 -109.5 38.5t-64.5 100.5q-109 -145 -301 -146q-174 0 -262 124t-88 304zM283 410q0 -264 149 -265 q61 0 110.5 42t80 101.5t56.5 155t39 170t27 179.5q-81 81 -174 81h-2q-78 0 -137 -51t-90 -128t-45 -150.5t-14 -134.5z" />
<glyph unicode="e" horiz-adv-x="972" d="M31 412q0 106 37.5 215.5t107.5 204t180.5 153.5t243.5 59q137 0 225 -61t88 -176q0 -66 -29.5 -131.5t-96 -130t-194.5 -105.5t-302 -43q8 -117 66.5 -179t142.5 -62q131 0 295 125l86 -170q-45 -39 -109 -68q-139 -68 -297 -68q-195 0 -319.5 117t-124.5 320zM305 571 q160 4 258.5 71t98.5 161q0 69 -78 69h-2q-68 0 -156 -75.5t-121 -225.5z" />
<glyph unicode="f" horiz-adv-x="686" d="M-330 -381l99 135q27 -25 70.5 -44t78.5 -19q137 0 174 237l125 920h-162l21 170h162q33 266 148.5 418.5t363.5 152.5q168 0 294 -88l-100 -162q-90 82 -201 82q-207 0 -270 -403h242l-23 -170h-241l-127 -944q-55 -375 -373 -375q-76 0 -159 22.5t-122 67.5z" />
<glyph unicode="g" horiz-adv-x="1062" d="M-23 -356l115 166q16 -27 90 -72t144 -45q72 0 134 47t101 113.5t61.5 126t26.5 98.5h-8q-109 -102 -258 -103q-174 0 -262 124t-88 304q0 162 61.5 304.5t194.5 239.5t313 97q117 0 209 -40l201 63l-125 -932q-39 -276 -176.5 -441t-372.5 -165q-129 0 -223.5 38 t-137.5 77zM283 410q0 -264 149 -265q53 0 97 29t76 87t54.5 115.5t41 148.5t27.5 149.5t22 152.5q-94 45 -162 45q-80 0 -143.5 -51t-96.5 -127t-49 -149.5t-16 -134.5z" />
<glyph unicode="h" horiz-adv-x="1017" d="M27 0l194 1464l-8 111h258l-90 -653q162 125 297 125q127 0 187.5 -62.5t60.5 -191.5q0 -55 -6 -105l-78 -577l6 -111h-258l90 664q6 37 6 73q0 111 -102 111q-45 0 -118 -37t-108 -72l-98 -739h-233z" />
<glyph unicode="i" horiz-adv-x="458" d="M29 0l121 907l-7 111h254l-121 -905l7 -113h-254zM182 1366q0 70 51.5 124t120.5 54q55 0 91 -39t36 -94q0 -70 -51 -125t-119 -55q-55 0 -92 40t-37 95z" />
<glyph unicode="j" horiz-adv-x="456" d="M-449 -385l113 164q61 -86 178 -86q137 0 186 317q3 14 3 21l119 878l-9 109h258l-129 -948q-10 -76 -17 -116t-23.5 -106.5t-34 -103.5t-48 -84t-69.5 -71.5t-96.5 -42t-126.5 -17.5q-163 0 -304 86zM178 1366q0 68 52.5 123t119.5 55q55 0 92 -39t37 -94 q0 -70 -51 -125t-119 -55q-55 0 -93 40t-38 95z" />
<glyph unicode="k" horiz-adv-x="925" d="M27 0l194 1464l-10 111h264l-137 -1024l342 467h262l-367 -471l275 -547h-270l-246 522l-70 -522h-237z" />
<glyph unicode="l" horiz-adv-x="462" d="M27 0l194 1464l-6 111h262l-196 -1464l6 -111h-260z" />
<glyph unicode="m" horiz-adv-x="1568" d="M33 0l98 729q6 57 6 119q0 117 -28 162l247 30q16 -49 17 -131q164 135 315 135q178 0 221 -149q155 149 334 149h2q233 0 234 -247q0 -59 -9 -103l-77 -585l6 -109h-254l90 680q4 37 4 57q0 57 -24.5 84t-84.5 27q-90 0 -210 -107l-99 -741h-235l92 686q4 33 4 49 q0 113 -104 113q-49 0 -108.5 -33t-102.5 -76l-101 -739h-233z" />
<glyph unicode="n" horiz-adv-x="1026" d="M33 0l98 729q6 57 6 119q0 117 -28 162l247 30q16 -49 17 -131q160 137 313 138q127 0 187.5 -62.5t60.5 -191.5q0 -55 -6 -105l-78 -577l6 -111h-256l88 664q6 37 6 73q0 111 -102 111q-45 0 -118 -37t-107 -72l-101 -739h-233z" />
<glyph unicode="o" horiz-adv-x="1052" d="M33 416q0 248 153.5 438t395.5 190q190 0 297.5 -122.5t107.5 -317.5q0 -160 -65.5 -302t-193.5 -234.5t-290 -92.5q-190 0 -297.5 123t-107.5 318zM289 403.5q0 -67.5 12 -122t53 -98.5t107 -44q78 0 134 51.5t84 131t40 155.5t12 148q0 252 -172 252q-74 0 -129 -50.5 t-84 -128t-43 -152.5t-14 -142.5z" />
<glyph unicode="p" horiz-adv-x="1077" d="M-29 -461l160 1190q8 51 8 117q0 106 -26 162l239 30q18 -68 21 -123q47 57 128 93t158 36q174 0 262.5 -123.5t88.5 -304.5q0 -252 -143.5 -445.5t-387.5 -193.5q-139 0 -207 66l-51 -391l10 -113h-260zM297 227q82 -82 176 -82q61 0 112.5 35t83 86t53 117t30 122 t8.5 103q0 264 -150 264q-47 0 -86 -22.5t-67.5 -53t-52 -89t-38 -104.5t-29.5 -125t-22.5 -124t-17.5 -127z" />
<glyph unicode="q" d="M33 403q0 160 61.5 303.5t190.5 239.5t299 96q147 0 247 -100l89 158h96l-191 -1446l11 -113h-261l72 539q-111 -104 -264 -105q-174 0 -262 124t-88 304zM281 403q0 -258 149 -258q72 0 128 57.5t91 162t56.5 202t37.5 226.5q-81 81 -174 81h-2q-78 0 -137 -52t-90 -130 t-45 -153t-14 -136z" />
<glyph unicode="r" horiz-adv-x="681" d="M35 0l98 743q8 35 8 103q0 121 -32 172l249 20q20 -70 21 -155v-31q0 -18 -2 -29q66 88 160 151.5t190 63.5l-72 -243h-8q-154 0 -297 -189l-82 -606h-233z" />
<glyph unicode="s" horiz-adv-x="796" d="M-33 66l107 167q2 -2 20.5 -13t22.5 -14t20.5 -13.5t23.5 -13.5t22.5 -10t24.5 -10l22 -7q14 -4 27 -5.5t26 -1.5q68 0 115.5 43t47.5 113q0 55 -58 96t-126.5 65.5t-127 85t-58.5 152.5q0 170 121.5 257t298.5 87q160 0 278 -63l-106 -172q-63 63 -183 63 q-61 0 -104 -29.5t-43 -86.5q0 -43 38 -75t92 -55.5t108.5 -53t92.5 -85t38 -135.5q0 -180 -125 -278.5t-303 -98.5q-169 1 -312 91z" />
<glyph unicode="t" horiz-adv-x="684" d="M51 848l23 170h141l39 278h260l-63 -278h235l-24 -170h-236l-74 -563q-4 -37 -4 -58q0 -80 68 -80q84 0 153 21l23 -141q-133 -47 -275 -47q-113 0 -163 47t-50 141q0 33 7 70l82 610h-142z" />
<glyph unicode="u" horiz-adv-x="1077" d="M57 227q0 35 6 72l82 629l-10 90h260l-88 -672q-4 -37 -4 -55q0 -119 100 -119q63 0 114.5 47t82.5 125t48.5 145.5t27.5 139.5l39 299l-13 90h263l-111 -752q-4 -29 -4 -43q0 -73 50 -73h1q35 0 98 24l35 -129q-96 -63 -221 -63q-61 0 -108.5 38.5t-59.5 100.5h-8 q-51 -66 -142.5 -105t-179.5 -39q-258 0 -258 250z" />
<glyph unicode="v" horiz-adv-x="919" d="M57 1018h250l109 -537q4 -18 20 -172q41 145 53 172l238 537h240l-475 -1026h-218z" />
<glyph unicode="w" horiz-adv-x="1384" d="M66 1018h249l68 -473q4 -33 4 -99v-45q0 -31 -2 -47q25 113 49 174l207 490h229l68 -473q4 -29 4 -107v-45q0 -27 -2 -39l23 90q6 27 26 84l199 490h235l-448 -1026h-203l-78 536q-4 33 -4 90v68l-12 -59q-10 -55 -23 -82l-235 -553h-203z" />
<glyph unicode="x" horiz-adv-x="921" d="M-94 0l424 541l-246 477h270l125 -270l195 270h264l-367 -471l275 -547h-273l-155 338l-246 -338h-266z" />
<glyph unicode="y" horiz-adv-x="925" d="M-354 -389l104 158q29 -25 53 -39q66 -37 127 -37q63 0 118.5 29.5t100 83t71 96.5t54.5 100l-215 1016h250q98 -475 113 -565q2 -14 8 -154q39 131 49 154q47 111 260 565h230l-477 -1024q-39 -82 -65 -129t-78 -120t-105.5 -114t-134 -71.5t-177.5 -30.5 q-123 0 -213 41q-38 16 -73 41z" />
<glyph unicode="z" horiz-adv-x="874" d="M-35 0v125l553 723h-412l23 170h713v-127l-559 -719h489l-22 -172h-785z" />
<glyph unicode="{" horiz-adv-x="620" d="M39 545l16 125q68 0 105 54t45 128l41 313q20 160 102 254t230 94h114l-18 -127q-100 0 -141 -34.5t-54 -137.5l-45 -340q-23 -207 -141 -268q76 -49 76 -178q0 -45 -7 -88l-45 -340q-6 -45 -6 -78q0 -59 28 -76.5t107 -17.5h21l-18 -129h-89q-270 0 -270 262q0 43 6 88 l45 326q2 6 2 33q0 57 -24.5 96t-79.5 41z" />
<glyph unicode="|" horiz-adv-x="552" d="M178 -238v1764h201v-1764h-201z" />
<glyph unicode="}" horiz-adv-x="620" d="M-76 -301l17 127q111 0 144.5 29.5t49.5 144.5l45 340q20 203 142 266q-76 49 -76 178q0 47 6 90l45 340q4 20 4 31v31q0 61 -30.5 84.5t-110.5 23.5h-13l19 129h113q246 0 245 -264q0 -41 -6 -84l-43 -313q-2 -6 -2 -23v-24q0 -131 102 -133l-16 -125q-61 0 -100 -51.5 t-47 -120.5l-43 -326q-25 -172 -110 -261t-247 -89h-88z" />
<glyph unicode="~" horiz-adv-x="1107" d="M45 500q39 92 118 158.5t167 66.5q96 0 235.5 -71.5t186.5 -71.5q96 0 172 149l123 -119q-51 -84 -133.5 -149.5t-161.5 -65.5q-82 0 -216.5 72t-205.5 72q-49 0 -90 -47.5t-66 -106.5z" />
<glyph unicode="&#xa2;" horiz-adv-x="952" d="M53 401q0 252 140.5 434.5t384.5 206.5l49 232h143l-84 -234q131 -16 227 -94l-137 -155q-90 80 -186 79q-90 0 -156.5 -79.5t-93.5 -177t-27 -185.5q0 -119 49.5 -200t157.5 -81q88 0 217 101l74 -176q-178 -96 -344 -97h-29l-53 -237h-141l96 252q-145 35 -216 144 t-71 267z" />
<glyph unicode="&#xa3;" horiz-adv-x="1153" d="M-14 0l28 205h181l65 495h-149l26 203h152l26 199q25 199 160 310.5t326 111.5q240 0 350 -236l-207 -110q-49 150 -172 149q-82 0 -131 -54t-59 -143l-31 -227h252l-27 -203h-254l-65 -495h571l-29 -205h-1013z" />
<glyph unicode="&#xa5;" horiz-adv-x="1044" d="M41 332l14 100h330v10l-51 113h-264l14 100h207l-162 363h285l137 -338l223 338h240l-246 -363h195l-15 -100h-252l-75 -113v-10h313l-14 -100h-314l-43 -332h-235l43 332h-330z" />
<glyph unicode="&#xa8;" horiz-adv-x="565" d="M4 1276q0 49 34 83t83 34t83 -34t34 -83t-34 -83t-83 -34t-83 34t-34 83zM332 1276q0 47 34.5 82t82.5 35q49 0 83.5 -34t34.5 -83t-34.5 -83t-83.5 -34q-47 0 -82 35t-35 82z" />
<glyph unicode="&#xa9;" horiz-adv-x="1277" d="M55 512q0 233 167 400t400.5 167t400.5 -167t167 -400t-167 -400t-400.5 -167t-400.5 167t-167 400zM137 512q0 -201 142.5 -343t343 -142t343 142t142.5 343t-142.5 343t-343 142t-343 -142t-142.5 -343zM303 442q0 178 109.5 299t285.5 121q106 0 199 -71l-104 -115 q-66 55 -125 55q-82 0 -127 -89t-45 -181q0 -168 129 -168q70 0 145 67l59 -131q-141 -66 -247 -65q-131 0 -205 72.5t-74 205.5z" />
<glyph unicode="&#xab;" horiz-adv-x="952" d="M70 680l360 352l154 -28l-289 -324l203 -326l-158 -22zM414 680l360 352l158 -28l-293 -324l207 -326l-162 -22z" />
<glyph unicode="&#xad;" horiz-adv-x="679" d="M86 430l27 195h452l-26 -195h-453z" />
<glyph unicode="&#xae;" horiz-adv-x="1017" d="M162 1249q0 178 126 305t304 127t305 -127t127 -305t-127 -305t-305 -127t-304 127t-126 305zM233 1249.5q0 -149.5 105.5 -254t253 -104.5t254 105.5t106.5 253t-106.5 253t-254 105.5t-253 -104.5t-105.5 -254zM385 1018l68 481h190q152 0 152 -113q0 -106 -107 -149 l121 -219h-147l-105 196h-22l-27 -196h-123zM549 1311h39q82 0 82 57q0 35 -56 35h-53z" />
<glyph unicode="&#xb4;" horiz-adv-x="481" d="M43 1208l270 338h297l-356 -338h-211z" />
<glyph unicode="&#xb8;" horiz-adv-x="468" d="M72 -324q33 4 47 8l46 11q32 8 47 24.5t15 38.5q0 25 -26.5 39.5t-89.5 34.5l133 195h155l-73 -113q102 -49 102 -143q0 -175 -324 -222z" />
<glyph unicode="&#xbb;" horiz-adv-x="948" d="M27 354l297 326l-201 324l164 28l262 -352l-369 -348zM373 354l295 326l-199 324l162 28l262 -352l-369 -348z" />
<glyph unicode="&#xc0;" horiz-adv-x="1239" d="M-78 0l705 1499h221l303 -1499h-287l-84 430h-401l-203 -430h-254zM346 1917h297l223 -338h-211zM473 631h264q-10 53 -69 512q-16 -43 -83 -227.5t-112 -284.5z" />
<glyph unicode="&#xc2;" horiz-adv-x="1239" d="M-78 0l705 1499h221l303 -1499h-287l-84 430h-401l-203 -430h-254zM438 1579l238 297h201l161 -297h-159l-123 152l-162 -152h-156zM473 631h264q-10 53 -69 512q-16 -43 -83 -227.5t-112 -284.5z" />
<glyph unicode="&#xc6;" horiz-adv-x="1759" d="M-113 0l887 1372l-10 127h1053l-29 -203h-547l-59 -424h440l-29 -202h-440l-66 -467h547l-28 -203h-830l62 430h-420l-281 -430h-250zM549 631h315l90 665l-75 -145z" />
<glyph unicode="&#xc7;" horiz-adv-x="1245" d="M76 600q0 240 91 448.5t276.5 344t428.5 135.5q121 0 248 -37t195 -109l-166 -188q-45 63 -128 99t-165 36q-123 0 -220 -63.5t-153.5 -166t-85 -216t-28.5 -228t28.5 -219t108.5 -186.5t199 -82q180 0 352 154l96 -195q-213 -129 -408 -147l-43 -66q102 -49 103 -143 q0 -174 -324 -222l-32 127q33 4 47 7.5t45.5 11.5t47 24.5t15.5 38.5q0 25 -26.5 39.5t-90.5 34.5l101 148q-250 25 -381 188.5t-131 431.5z" />
<glyph unicode="&#xc8;" d="M53 0l185 1374l-15 125h897l-26 -203h-600l-58 -424h459l-27 -202h-458l-62 -467h598l-26 -203h-867zM315 1917h297l224 -338h-211z" />
<glyph unicode="&#xc9;" d="M53 0l185 1374l-15 125h897l-26 -203h-600l-58 -424h459l-27 -202h-458l-62 -467h598l-26 -203h-867zM584 1579l270 338h297l-356 -338h-211z" />
<glyph unicode="&#xca;" d="M53 0l185 1374l-15 125h897l-26 -203h-600l-58 -424h459l-27 -202h-458l-62 -467h598l-26 -203h-867zM406 1579l237 297h201l162 -297h-160l-123 152l-162 -152h-155z" />
<glyph unicode="&#xcb;" d="M53 0l185 1374l-15 125h897l-26 -203h-600l-58 -424h459l-27 -202h-458l-62 -467h598l-26 -203h-867zM422 1681.5q0 49.5 33.5 83t83 33.5t83 -33.5t33.5 -83t-33.5 -83t-83 -33.5t-83 33.5t-33.5 83zM750 1681.5q0 47.5 34.5 82t81.5 34.5q49 0 84 -33.5t35 -83t-35 -83 t-84 -33.5q-47 0 -81.5 34.5t-34.5 82z" />
<glyph unicode="&#xce;" horiz-adv-x="538" d="M53 0l185 1374l-13 125h295l-198 -1499h-269zM94 1579l238 297h200l162 -297h-159l-123 152l-162 -152h-156z" />
<glyph unicode="&#xcf;" horiz-adv-x="538" d="M53 0l185 1374l-13 125h295l-198 -1499h-269zM119 1679.5q0 49.5 33.5 83t83 33.5t83 -33.5t33.5 -83t-33.5 -83t-83 -33.5t-83 33.5t-33.5 83zM446 1679q0 47 35 82t82 35q49 0 84 -33.5t35 -83t-35 -83t-84 -33.5q-47 0 -82 34.5t-35 81.5z" />
<glyph unicode="&#xd4;" horiz-adv-x="1492" d="M76 604q0 240 89 445.5t271 339t426 133.5q285 0 438.5 -168t153.5 -455q0 -240 -91 -446.5t-276.5 -341t-431.5 -134.5q-279 0 -429 172t-150 455zM362 610q0 -186 76 -312t250 -126q127 0 224.5 70.5t149.5 182.5t77.5 229.5t25.5 234.5q0 121 -26.5 213t-102 158.5 t-196.5 66.5q-125 0 -222.5 -70.5t-150.5 -182t-79 -229.5t-26 -235zM592 1579l237 297h201l162 -297h-160l-123 152l-161 -152h-156z" />
<glyph unicode="&#xd9;" horiz-adv-x="1361" d="M104 442q0 70 9 127l108 807l-14 123h305l-133 -1001q-4 -37 -4 -56q0 -127 73.5 -198.5t200.5 -71.5q145 0 241.5 96.5t115.5 233.5l135 997h219l-125 -930q-39 -287 -189.5 -439.5t-451.5 -152.5q-233 0 -361.5 117t-128.5 348zM434 1917h297l223 -338h-211z" />
<glyph unicode="&#xdb;" horiz-adv-x="1361" d="M104 442q0 70 9 127l108 807l-14 123h305l-133 -1001q-4 -37 -4 -56q0 -127 73.5 -198.5t200.5 -71.5q145 0 241.5 96.5t115.5 233.5l135 997h219l-125 -930q-39 -287 -189.5 -439.5t-451.5 -152.5q-233 0 -361.5 117t-128.5 348zM532 1579l238 297h201l162 -297h-160 l-123 152l-162 -152h-156z" />
<glyph unicode="&#xdc;" horiz-adv-x="1361" d="M104 442q0 70 9 127l108 807l-14 123h305l-133 -1001q-4 -37 -4 -56q0 -127 73.5 -198.5t200.5 -71.5q145 0 241.5 96.5t115.5 233.5l135 997h219l-125 -930q-39 -287 -189.5 -439.5t-451.5 -152.5q-233 0 -361.5 117t-128.5 348zM563 1685.5q0 49.5 34 83t83 33.5 t83 -33.5t34 -83t-34 -83t-83 -33.5t-83 33.5t-34 83zM891 1685.5q0 47.5 35 82t82 34.5q49 0 83.5 -33.5t34.5 -83t-34.5 -83t-83.5 -33.5q-47 0 -82 34.5t-35 82z" />
<glyph unicode="&#xe0;" horiz-adv-x="1118" d="M33 403q0 160 61.5 303.5t190.5 239.5t299 96q57 0 126.5 -25.5t118.5 -76.5l48 84h129l-111 -758q-4 -29 -4 -43q0 -74 51 -73q35 0 98 24l35 -129q-96 -63 -217 -63q-61 0 -108.5 39.5t-59.5 99.5h-8q-109 -145 -299 -146q-174 0 -262 124t-88 304zM199 1550h297 l223 -338h-211zM281 403q0 -258 149 -258q72 0 128 57.5t91 162t56.5 202t37.5 226.5q-82 82 -176 81q-78 0 -137 -52t-90 -130t-45 -153t-14 -136z" />
<glyph unicode="&#xe2;" horiz-adv-x="1118" d="M33 403q0 160 61.5 303.5t190.5 239.5t299 96q57 0 126.5 -25.5t118.5 -76.5l48 84h129l-111 -758q-4 -29 -4 -43q0 -74 51 -73q35 0 98 24l35 -129q-96 -63 -217 -63q-61 0 -108.5 39.5t-59.5 99.5h-8q-109 -145 -299 -146q-174 0 -262 124t-88 304zM281 403 q0 -258 149 -258q72 0 128 57.5t91 162t56.5 202t37.5 226.5q-82 82 -176 81q-78 0 -137 -52t-90 -130t-45 -153t-14 -136zM348 1212l238 297h200l162 -297h-160l-122 152l-162 -152h-156z" />
<glyph unicode="&#xe6;" horiz-adv-x="1589" d="M33 403q0 160 61.5 303.5t190.5 239.5t299 96q211 0 313 -170q145 172 356 172q131 0 204 -59t73 -178q0 -66 -30 -131.5t-95.5 -130t-193.5 -105.5t-302 -43q8 -117 65.5 -179t141.5 -62q131 0 295 125l86 -170q-45 -39 -108 -68q-139 -68 -297 -68q-236 0 -349 172 q-150 -172 -360 -172q-174 0 -262 124t-88 304zM281 403q0 -258 149 -258q72 0 128 57.5t91 162t56.5 202t37.5 226.5q-82 82 -176 81q-78 0 -137 -52t-90 -130t-45 -153t-14 -136zM922 571q160 4 258 71t98 161q0 70 -80 69q-68 0 -155.5 -75.5t-120.5 -225.5z" />
<glyph unicode="&#xe7;" horiz-adv-x="884" d="M33 403q0 266 155.5 453.5t407.5 187.5q74 0 158 -27.5t139 -70.5l-141 -162q-86 90 -183 90q-74 0 -130 -46t-86.5 -118.5t-45 -144t-14.5 -137.5q0 -117 46 -194.5t150 -77.5q102 0 228 92l74 -176q-137 -74 -271 -92l-43 -66q102 -49 103 -143q0 -174 -324 -222 l-33 127q33 4 47.5 7.5t46 11.5t47 24.5t15.5 38.5q0 25 -26.5 39.5t-90.5 34.5l103 150q-152 25 -242 142t-90 279z" />
<glyph unicode="&#xe8;" horiz-adv-x="972" d="M31 412q0 106 37.5 215.5t107.5 204t180.5 153.5t243.5 59q137 0 225 -61t88 -176q0 -66 -29.5 -131.5t-96 -130t-194.5 -105.5t-302 -43q8 -117 66.5 -179t142.5 -62q131 0 295 125l86 -170q-45 -39 -109 -68q-139 -68 -297 -68q-195 0 -319.5 117t-124.5 320zM154 1550 h297l223 -338h-211zM305 571q160 4 258.5 71t98.5 161q0 70 -80 69q-68 0 -156 -75.5t-121 -225.5z" />
<glyph unicode="&#xe9;" horiz-adv-x="972" d="M31 412q0 106 37.5 215.5t107.5 204t180.5 153.5t243.5 59q137 0 225 -61t88 -176q0 -66 -29.5 -131.5t-96 -130t-194.5 -105.5t-302 -43q8 -117 66.5 -179t142.5 -62q131 0 295 125l86 -170q-45 -39 -109 -68q-139 -68 -297 -68q-195 0 -319.5 117t-124.5 320zM305 571 q160 4 258.5 71t98.5 161q0 70 -80 69q-68 0 -156 -75.5t-121 -225.5zM479 1212l271 338h297l-357 -338h-211z" />
<glyph unicode="&#xea;" horiz-adv-x="972" d="M31 412q0 106 37.5 215.5t107.5 204t180.5 153.5t243.5 59q137 0 225 -61t88 -176q0 -66 -29.5 -131.5t-96 -130t-194.5 -105.5t-302 -43q8 -117 66.5 -179t142.5 -62q131 0 295 125l86 -170q-45 -39 -109 -68q-139 -68 -297 -68q-195 0 -319.5 117t-124.5 320zM285 1212 l237 297h201l162 -297h-160l-123 152l-162 -152h-155zM305 571q160 4 258.5 71t98.5 161q0 70 -80 69q-68 0 -156 -75.5t-121 -225.5z" />
<glyph unicode="&#xeb;" horiz-adv-x="972" d="M31 412q0 106 37.5 215.5t107.5 204t180.5 153.5t243.5 59q137 0 225 -61t88 -176q0 -66 -29.5 -131.5t-96 -130t-194.5 -105.5t-302 -43q8 -117 66.5 -179t142.5 -62q131 0 295 125l86 -170q-45 -39 -109 -68q-139 -68 -297 -68q-195 0 -319.5 117t-124.5 320z M301 1296.5q0 49.5 34 83t83 33.5t83 -33.5t34 -83t-34 -83t-83 -33.5t-83 33.5t-34 83zM305 571q160 4 258.5 71t98.5 161q0 70 -80 69q-68 0 -156 -75.5t-121 -225.5zM629 1296q0 47 34.5 82t81.5 35q49 0 84 -33.5t35 -83t-34.5 -83t-84.5 -33.5q-47 0 -81.5 34.5 t-34.5 81.5z" />
<glyph unicode="&#xee;" horiz-adv-x="458" d="M-12 1212l237 297h201l162 -297h-160l-123 152l-162 -152h-155zM29 0l121 907l-7 111h254l-121 -905l7 -113h-254z" />
<glyph unicode="&#xef;" horiz-adv-x="458" d="M16 1276q0 49 34 83t83 34t83 -34t34 -83t-34 -83t-83 -34t-83 34t-34 83zM27 0l123 907l-9 111h256l-121 -905l5 -113h-254zM344 1276q0 47 35 82t82 35q49 0 84 -34t35 -83t-35 -83t-84 -34q-47 0 -82 35t-35 82z" />
<glyph unicode="&#xf4;" horiz-adv-x="1052" d="M33 416q0 248 153.5 438t395.5 190q190 0 297.5 -122.5t107.5 -317.5q0 -160 -65.5 -302t-193.5 -234.5t-290 -92.5q-190 0 -297.5 123t-107.5 318zM289 403.5q0 -67.5 12 -122t53 -98.5t107 -44q78 0 134 51.5t84 131t40 155.5t12 148q0 252 -172 252q-74 0 -129 -50.5 t-84 -128t-43 -152.5t-14 -142.5zM315 1210l238 297h201l161 -297h-159l-123 152l-162 -152h-156z" />
<glyph unicode="&#xf9;" horiz-adv-x="1077" d="M57 227q0 35 6 72l82 629l-10 90h260l-88 -672q-4 -20 -4 -27v-28q0 -119 100 -119q63 0 114.5 47t82.5 125t48.5 145.5t27.5 139.5l39 299l-13 90h263l-111 -752q-4 -12 -4 -20v-23q0 -74 51 -73q35 0 98 24l35 -129q-96 -63 -221 -63q-61 0 -108.5 38.5t-59.5 100.5h-8 q-51 -66 -142.5 -105t-179.5 -39q-258 0 -258 250zM145 1550h297l224 -338h-211z" />
<glyph unicode="&#xfb;" horiz-adv-x="1077" d="M57 227q0 35 6 72l82 629l-10 90h260l-88 -672q-4 -37 -4 -55q0 -119 100 -119q63 0 114.5 47t82.5 125t48.5 145.5t27.5 139.5l39 299l-13 90h263l-111 -752q-4 -29 -4 -43q0 -74 51 -73q35 0 98 24l35 -129q-96 -63 -221 -63q-61 0 -108.5 38.5t-59.5 100.5h-8 q-51 -66 -142.5 -105t-179.5 -39q-258 0 -258 250zM266 1210l238 297h201l161 -297h-159l-123 152l-162 -152h-156z" />
<glyph unicode="&#xfc;" horiz-adv-x="1077" d="M57 227q0 35 6 72l82 629l-10 90h260l-88 -672q-4 -37 -4 -55q0 -119 100 -119q63 0 114.5 47t82.5 125t48.5 145.5t27.5 139.5l39 299l-13 90h263l-111 -752q-4 -29 -4 -43q0 -74 51 -73q35 0 98 24l35 -129q-96 -63 -221 -63q-61 0 -108.5 38.5t-59.5 100.5h-8 q-51 -66 -142.5 -105t-179.5 -39q-258 0 -258 250zM289 1296.5q0 49.5 33.5 83t83 33.5t83 -33.5t33.5 -83t-33.5 -83t-83 -33.5t-83 33.5t-33.5 83zM616 1296q0 47 35 82t82 35q49 0 84 -33.5t35 -83t-35 -83t-84 -33.5q-47 0 -82 34.5t-35 81.5z" />
<glyph unicode="&#xff;" horiz-adv-x="925" d="M-354 -389l104 158q29 -25 53 -39q66 -37 127 -37q63 0 118.5 29.5t100 83t71 96.5t54.5 100l-215 1016h250q98 -475 113 -565q2 -14 8 -154q39 131 49 154q47 111 260 565h230l-477 -1024q-39 -82 -65 -129t-78 -120t-105.5 -114t-134 -71.5t-177.5 -30.5 q-123 0 -213 41q-38 16 -73 41zM260 1296.5q0 49.5 34 83t83 33.5t83 -33.5t34 -83t-34 -83t-83 -33.5t-83 33.5t-34 83zM588 1296q0 47 34.5 82t82.5 35q49 0 83.5 -33.5t34.5 -83t-34.5 -83t-83.5 -33.5q-47 0 -82 34.5t-35 81.5z" />
<glyph unicode="&#x152;" horiz-adv-x="2072" d="M78 604q0 240 89 445.5t271.5 339t425.5 133.5q236 0 379 -156l19 133h866l-27 -203h-600l-57 -424h459l-27 -202h-459l-61 -467h598l-27 -203h-866l18 139q-94 -90 -193.5 -126t-228.5 -36q-279 0 -429 172t-150 455zM365 610q0 -186 75.5 -312t249.5 -126 q127 0 224.5 70.5t149.5 182.5t77.5 229.5t25.5 234.5q0 121 -26.5 213t-102 158.5t-196.5 66.5q-125 0 -222.5 -70.5t-150.5 -182t-78.5 -229.5t-25.5 -235z" />
<glyph unicode="&#x153;" horiz-adv-x="1660" d="M33 416q0 248 153.5 438t395.5 190q219 0 327 -161q162 162 379 161q137 0 225.5 -61t88.5 -176q0 -66 -30 -131.5t-95.5 -130t-193.5 -105.5t-302 -43q8 -117 65.5 -179t141.5 -62q131 0 295 125l86 -170q-45 -39 -109 -68q-139 -68 -297 -68q-236 0 -356 158 q-152 -158 -369 -158q-190 0 -297.5 123t-107.5 318zM289 403.5q0 -67.5 12 -122t53 -98.5t107 -44q78 0 134 51.5t84 131t40 155.5t12 148q0 252 -172 252q-74 0 -129 -50.5t-84 -128t-43 -152.5t-14 -142.5zM993 571q160 4 258.5 71t98.5 161q0 70 -80 69 q-68 0 -156 -75.5t-121 -225.5z" />
<glyph unicode="&#x178;" horiz-adv-x="1153" d="M137 1499h299l197 -532l350 532h266l-538 -829l-90 -670h-267l88 676zM442 1685.5q0 49.5 34 83t83 33.5t83 -33.5t34 -83t-34 -83t-83 -33.5t-83 33.5t-34 83zM770 1685.5q0 47.5 35 82t82 34.5q49 0 84 -33.5t35 -83t-35 -83t-84 -33.5q-47 0 -82 34.5t-35 82z" />
<glyph unicode="&#x2c6;" horiz-adv-x="520" d="M-37 1204l238 297h200l162 -297h-160l-122 152l-162 -152h-156z" />
<glyph unicode="&#x2da;" horiz-adv-x="575" d="M70 1307q0 90 64.5 154.5t154.5 64.5t155.5 -64.5t65.5 -154.5t-65.5 -155t-155.5 -65t-154.5 65t-64.5 155zM205 1306.5q0 -34.5 24.5 -59t59.5 -24.5t58.5 24.5t23.5 59t-24.5 58.5t-57.5 24q-35 0 -59.5 -24t-24.5 -58.5z" />
<glyph unicode="&#x2dc;" horiz-adv-x="557" d="M-86 1245q29 43 66 78q86 78 200 78q61 0 143.5 -29t108.5 -29q35 0 115 56l94 -64q-31 -47 -63 -78q-80 -76 -185 -75q-61 0 -146 29.5t-124 29.5q-44 0 -107 -51z" />
<glyph unicode="&#x2000;" horiz-adv-x="958" />
<glyph unicode="&#x2001;" horiz-adv-x="1917" />
<glyph unicode="&#x2002;" horiz-adv-x="958" />
<glyph unicode="&#x2003;" horiz-adv-x="1917" />
<glyph unicode="&#x2004;" horiz-adv-x="639" />
<glyph unicode="&#x2005;" horiz-adv-x="479" />
<glyph unicode="&#x2006;" horiz-adv-x="319" />
<glyph unicode="&#x2007;" horiz-adv-x="319" />
<glyph unicode="&#x2008;" horiz-adv-x="239" />
<glyph unicode="&#x2009;" horiz-adv-x="383" />
<glyph unicode="&#x200a;" horiz-adv-x="106" />
<glyph unicode="&#x2010;" horiz-adv-x="679" d="M86 430l27 195h452l-26 -195h-453z" />
<glyph unicode="&#x2011;" horiz-adv-x="679" d="M86 430l27 195h452l-26 -195h-453z" />
<glyph unicode="&#x2012;" horiz-adv-x="679" d="M86 430l27 195h452l-26 -195h-453z" />
<glyph unicode="&#x2013;" horiz-adv-x="1200" d="M84 432l29 193h974l-28 -193h-975z" />
<glyph unicode="&#x2014;" horiz-adv-x="1916" d="M84 432l29 193h1691l-28 -193h-1692z" />
<glyph unicode="&#x2018;" horiz-adv-x="462" d="M133 1114q0 113 86 219.5t203 177.5l72 -81q-35 -23 -75 -74t-40 -84q0 -12 37 -56.5t37 -97.5q0 -70 -48.5 -116t-113.5 -46q-68 0 -113 45t-45 113z" />
<glyph unicode="&#x2019;" horiz-adv-x="458" d="M139 1036q39 33 77 80t38 80q0 12 -37 56t-37 98q0 68 49.5 114.5t112.5 46.5q72 0 115 -45t43 -112q0 -113 -86 -219.5t-203 -178.5z" />
<glyph unicode="&#x201a;" horiz-adv-x="477" d="M-31 -190q115 102 115 157q0 12 -37 56.5t-37 97.5q0 70 48 117t114 47q68 0 113 -45t45 -113q0 -113 -89 -220t-204 -181z" />
<glyph unicode="&#x201c;" horiz-adv-x="849" d="M131 1114q0 113 86 219.5t203 177.5l72 -81q-35 -23 -75 -74t-40 -84q0 -12 37 -56.5t37 -97.5q0 -70 -48.5 -116t-113.5 -46q-68 0 -113 45t-45 113zM520 1114q0 113 86 219.5t203 177.5l72 -81q-35 -23 -75 -74t-40 -84q0 -12 37 -56.5t37 -97.5q0 -70 -48.5 -116 t-113.5 -46q-68 0 -113 45t-45 113z" />
<glyph unicode="&#x201d;" horiz-adv-x="847" d="M139 1036q39 33 77 80t38 80q0 12 -37 56t-37 98q0 68 49.5 114.5t112.5 46.5q72 0 115 -45t43 -112q0 -113 -86 -219.5t-203 -178.5zM528 1036q39 33 77 80t38 80q0 12 -37 56t-37 98q0 68 49.5 114.5t112.5 46.5q72 0 115 -45t43 -112q0 -113 -86 -219.5t-203 -178.5z " />
<glyph unicode="&#x201e;" horiz-adv-x="866" d="M-31 -190q39 33 77 80t38 79q0 10 -37 55.5t-37 98.5q0 68 49.5 115t112.5 47q68 0 113 -45t45 -113q0 -113 -86 -219t-203 -178zM358 -190q39 33 77 80t38 79q0 10 -37 55.5t-37 98.5q0 68 49.5 115t112.5 47q68 0 113 -45t45 -113q0 -113 -86 -219t-203 -178z" />
<glyph unicode="&#x2026;" horiz-adv-x="1484" d="M10 133q0 68 46 114t111.5 46t113 -47t47.5 -112.5t-46 -112t-114 -46.5q-66 0 -112 46t-46 112zM518 133.5q0 65.5 46 112.5t111.5 47t112 -47t46.5 -112.5t-46.5 -112t-112 -46.5t-111.5 46.5t-46 112zM1024 133.5q0 65.5 47 112.5t112.5 47t111.5 -46t46 -114 q0 -66 -46 -112t-111 -46q-68 0 -114 46.5t-46 112z" />
<glyph unicode="&#x202f;" horiz-adv-x="383" />
<glyph unicode="&#x2039;" horiz-adv-x="604" d="M70 680l360 352l154 -28l-289 -324l203 -326l-158 -22z" />
<glyph unicode="&#x203a;" horiz-adv-x="602" d="M27 354l297 326l-201 324l162 28l262 -352l-369 -348z" />
<glyph unicode="&#x205f;" horiz-adv-x="479" />
<glyph unicode="&#x20ac;" horiz-adv-x="1077" d="M31 354l14 97h139q4 63 19 127h-142l13 96h155q68 180 205 275t326 95q162 0 280 -98l-137 -155q-90 80 -186 79q-74 0 -136.5 -58t-93.5 -138h330l-12 -96h-348q-16 -82 -17 -127h348l-14 -97h-330q12 -92 64.5 -149.5t140.5 -57.5q57 0 102.5 24t112.5 77l76 -176 q-186 -96 -350 -97q-176 0 -285 98.5t-123 280.5h-151z" />
<glyph unicode="&#x2122;" horiz-adv-x="1181" d="M217 1405l12 94h418l-12 -94h-150l-53 -387h-125l55 387h-145zM604 1018l68 481h151l66 -278l145 278h150l-68 -481h-121l35 262q-4 -8 -139 -262h-74l-69 274l-37 -274h-107z" />
<glyph unicode="&#xe000;" horiz-adv-x="1020" d="M0 1020h1020v-1020h-1020v1020z" />
</font>
</defs>
</svg>
